<svg version="1.1"
xmlns="http://www.w3.org/2000/svg"
viewBox="-206.7 -3696.3999999999996 6676.9 4249.599999999999">
<desc>Created with Snap</desc><defs></defs><g><g
transform="matrix(72,0,0,72,1979.75,-3389.2)"><g
display="none"><rect x="-69.333" y="-18.667" display="inline" fill="#e8715b" width="473.333" height="236" style="">
</rect></g><g display="none"><g display="inline"><g><polygon fill="#e8715b" points="32,15.976 15.976,32 0,16.024"
style=""></polygon></g><g><polygon points="23.347,15.989 15.989,23.347 8.653,16.011"
fill="#e8715b" style=""></polygon></g><g><polygon fill="#e8715b" points="0,16.024 16.024,0 32,15.976" style="">
</polygon></g><g><polygon fill="#e8715b" points="8.653,16.011 16.011,8.653 23.347,15.989"
style=""></polygon></g></g></g><g display="none"><g display="inline"><path fill="#e8715b"
d="M16,1c8.271,0,15,6.729,15,15s-6.729,15-15,15S1,24.271,1,16S7.729,1,16,1 M16,0C7.163,0,0,7.163,0,16
s7.163,16,16,16s16-7.163,16-16S24.837,0,16,0L16,0z" style=""></path></g><g display="inline"><path fill="#e8715b"
d="M13.034,6.153l2.259,2.259L16,9.119l0.707-0.707l2.259-2.259l0.744,0.744l-2.259,2.259l-0.707,0.707
l0.707,0.707l2.259,2.259l-0.744,0.744l-2.259-2.259L16,10.607l-0.707,0.707l-2.259,2.259l-0.744-0.744l2.259-2.259l0.707-0.707
l-0.707-0.707L12.29,6.897L13.034,6.153 M18.966,4.738L16,7.705l-2.966-2.966l-2.158,2.158l2.966,2.966l-2.966,2.966l2.158,2.158
L16,12.021l2.966,2.966l2.158-2.158l-2.966-2.966l2.966-2.966L18.966,4.738L18.966,4.738z" style=""></path></g><g display="inline"><path fill="#e8715b" d="M13.034,18.427l2.259,2.259L16,21.393l0.707-0.707l2.259-2.259l0.744,0.744l-2.259,2.259l-0.707,0.707    l0.707,0.707l2.259,2.259l-0.744,0.744l-2.259-2.259L16,22.881l-0.707,0.707l-2.259,2.259l-0.744-0.744l2.259-2.259l0.707-0.707    l-0.707-0.707l-2.259-2.259L13.034,18.427 M18.966,17.013L16,19.979l-2.966-2.966l-2.158,2.158l2.966,2.966l-2.966,2.966    l2.158,2.158L16,24.295l2.966,2.966l2.158-2.158l-2.966-2.966l2.966-2.966L18.966,17.013L18.966,17.013z" style=""></path></g></g><g display="none"><g display="inline"><rect x="2" y="2" fill="#e8715b" width="28" height="28" style=""></rect></g><g display="inline"><g><path fill="#e8715b" d="M16,31.5C7.453,31.5,0.5,24.547,0.5,16S7.453,0.5,16,0.5S31.5,7.453,31.5,16S24.547,31.5,16,31.5z" style=""></path></g><g><g><path d="M16,1c8.271,0,15,6.729,15,15s-6.729,15-15,15S1,24.271,1,16S7.729,1,16,1 M16,0C7.163,0,0,7.163,0,16s7.163,16,16,16      s16-7.163,16-16S24.837,0,16,0L16,0z" fill="#e8715b" style=""></path></g></g></g><g display="inline"><g><polygon fill="#e8715b" points="16,11.314 13.034,14.28 11.582,12.829 14.549,9.863 11.582,6.896 13.034,5.445 16,8.412      18.966,5.445 20.418,6.896 17.451,9.863 20.418,12.829 18.966,14.28    " style=""></polygon></g><g><path d="M13.034,6.153l2.259,2.259L16,9.119l0.707-0.707l2.259-2.259l0.744,0.744l-2.259,2.259l-0.707,0.707l0.707,0.707     l2.259,2.259l-0.744,0.744l-2.259-2.259L16,10.607l-0.707,0.707l-2.259,2.259l-0.744-0.744l2.259-2.259l0.707-0.707l-0.707-0.707     L12.29,6.897L13.034,6.153 M18.966,4.738L16,7.705l-2.966-2.966l-2.158,2.158l2.966,2.966l-2.966,2.966l2.158,2.158L16,12.021     l2.966,2.966l2.158-2.158l-2.966-2.966l2.966-2.966L18.966,4.738L18.966,4.738z" fill="#e8715b" style=""></path></g></g><g display="inline"><g><polygon fill="#e8715b" points="16,23.589 13.034,26.555 11.582,25.104 14.549,22.137 11.582,19.171 13.034,17.72 16,20.686      18.966,17.72 20.418,19.171 17.451,22.137 20.418,25.104 18.966,26.555    " style=""></polygon></g><g><path d="M13.034,18.427l2.259,2.259L16,21.393l0.707-0.707l2.259-2.259l0.744,0.744l-2.259,2.259l-0.707,0.707l0.707,0.707     l2.259,2.259l-0.744,0.744l-2.259-2.259L16,22.881l-0.707,0.707l-2.259,2.259l-0.744-0.744l2.259-2.259l0.707-0.707l-0.707-0.707     l-2.259-2.259L13.034,18.427 M18.966,17.013L16,19.979l-2.966-2.966l-2.158,2.158l2.966,2.966l-2.966,2.966l2.158,2.158     L16,24.295l2.966,2.966l2.158-2.158l-2.966-2.966l2.966-2.966L18.966,17.013L18.966,17.013z" fill="#e8715b" style=""></path></g></g></g><g><g><path d="M0,16.024L15.976,32L32,15.976L16.024,0L0,16.024z M15.989,23.347l-7.336-7.336l14.694-0.022L15.989,23.347z" fill="#e8715b" style=""></path></g></g><desc>Created with Snap</desc><defs></defs></g><g><g transform="matrix(0.5,0,0,-0.5,0,0)"><path d="M1128 1036Q1128 814 976 694Q825 575 543 575L371 575L371 0L201 0L201 1462L580 1462Q1128 1462 1128 1036ZM371 1315L371 721L524 721Q750 721 851 794Q952 867 952 1028Q952 1173 857 1244Q762 1315 561 1315L371 1315ZM2325 0L2159 0L2159 709Q2159 843 2098 909Q2037 975 1907 975Q1734 975 1654 881Q1575 787 1575 573L1575 0L1409 0L1409 1556L1575 1556L1575 1085Q1575 1000 1567 944L1577 944Q1626 1023 1716 1068Q1807 1114 1923 1114Q2124 1114 2224 1018Q2325 923 2325 715L2325 0ZM3612 549Q3612 281 3477 130Q3342 -20 3104 -20Q2957 -20 2843 49Q2729 118 2667 247Q2605 376 2605 549Q2605 817 2739 966Q2873 1116 3111 1116Q3341 1116 3476 963Q3612 810 3612 549ZM2777 549Q2777 339 2861 229Q2945 119 3108 119Q3271 119 3355 228Q3440 338 3440 549Q3440 758 3355 866Q3271 975 3106 975Q2943 975 2860 868Q2777 761 2777 549ZM4257 117Q4301 117 4342 123Q4383 130 4407 137L4407 10Q4380 -3 4327 -12Q4275 -20 4233 -20Q3915 -20 3915 315L3915 967L3758 967L3758 1047L3915 1116L3985 1350L4081 1350L4081 1096L4399 1096L4399 967L4081 967L4081 322Q4081 223 4128 170Q4175 117 4257 117ZM5572 549Q5572 281 5437 130Q5302 -20 5064 -20Q4917 -20 4803 49Q4689 118 4627 247Q4565 376 4565 549Q4565 817 4699 966Q4833 1116 5071 1116Q5301 1116 5436 963Q5572 810 5572 549ZM4737 549Q4737 339 4821 229Q4905 119 5068 119Q5231 119 5315 228Q5400 338 5400 549Q5400 758 5315 866Q5231 975 5066 975Q4903 975 4820 868Q4737 761 4737 549ZM6381 1096L6760 1096L6760 991L6557 967Q6585 932 6607 875Q6629 819 6629 748Q6629 587 6519 491Q6409 395 6217 395Q6168 395 6125 403Q6019 347 6019 262Q6019 217 6056 195Q6093 174 6183 174L6377 174Q6555 174 6650 99Q6746 24 6746 -119Q6746 -301 6600 -397Q6454 -492 6174 -492Q5959 -492 5842 -412Q5726 -332 5726 -186Q5726 -86 5790 -13Q5854 60 5970 86Q5928 105 5899 145Q5871 185 5871 238Q5871 298 5903 343Q5935 388 6004 430Q5919 465 5865 549Q5812 633 5812 741Q5812 921 5920 1018Q6028 1116 6226 1116Q6312 1116 6381 1096ZM5886 -184Q5886 -273 5961 -319Q6036 -365 6176 -365Q6385 -365 6485 -303Q6586 -240 6586 -133Q6586 -44 6531 -10Q6476 25 6324 25L6125 25Q6012 25 5949 -29Q5886 -83 5886 -184ZM5976 745Q5976 630 6041 571Q6106 512 6222 512Q6465 512 6465 748Q6465 995 6219 995Q6102 995 6039 932Q5976 869 5976 745ZM7485 1116Q7558 1116 7616 1104L7593 950Q7525 965 7473 965Q7340 965 7245 857Q7151 749 7151 588L7151 0L6985 0L6985 1096L7122 1096L7141 893L7149 893Q7210 1000 7296 1058Q7382 1116 7485 1116ZM8618 0L8495 0L8462 156L8454 156Q8372 53 8290 16Q8209 -20 8087 -20Q7924 -20 7831 64Q7739 148 7739 303Q7739 635 8270 651L8456 657L8456 725Q8456 854 8400 915Q8345 977 8223 977Q8086 977 7913 893L7862 1020Q7943 1064 8039 1089Q8136 1114 8233 1114Q8429 1114 8523 1027Q8618 940 8618 748L8618 0ZM8120 117Q8275 117 8363 202Q8452 287 8452 440L8452 539L8286 532Q8088 525 8000 470Q7913 416 7913 301Q7913 211 7967 164Q8022 117 8120 117ZM9470 -20Q9363 -20 9274 19Q9186 59 9126 141L9114 141Q9126 45 9126 -41L9126 -492L8960 -492L8960 1096L9095 1096L9118 946L9126 946Q9190 1036 9275 1076Q9360 1116 9470 1116Q9688 1116 9806 967Q9925 818 9925 549Q9925 279 9804 129Q9684 -20 9470 -20ZM9446 975Q9278 975 9203 882Q9128 789 9126 586L9126 549Q9126 318 9203 218Q9280 119 9450 119Q9592 119 9672 234Q9753 349 9753 551Q9753 756 9672 865Q9592 975 9446 975ZM11131 0L10965 0L10965 709Q10965 843 10904 909Q10843 975 10713 975Q10540 975 10460 881Q10381 787 10381 573L10381 0L10215 0L10215 1556L10381 1556L10381 1085Q10381 1000 10373 944L10383 944Q10432 1023 10522 1068Q10613 1114 10729 1114Q10930 1114 11030 1018Q11131 923 11131 715L11131 0ZM11740 -6L11298 1096L11476 1096L11716 471Q11795 257 11814 162L11822 162Q11835 213 11876 336Q11918 460 12148 1096L12326 1096L11855 -152Q11785 -337 11691 -415Q11598 -492 11462 -492Q11386 -492 11312 -475L11312 -342Q11367 -354 11435 -354Q11606 -354 11679 -162L11740 -6Z" fill="#072a55" style=""></path></g></g></g></svg>